<svg xmlns="http://www.w3.org/2000/svg" xmlns:xlink="http://www.w3.org/1999/xlink" version="1.1" x="0px" y="0px" viewBox="0 0 100 125" enable-background="new 0 0 100 100" xml:space="preserve"><path d="M29.365,67.833V51.896h6.188c1.572,0,2.742,0.071,3.512,0.211c0.768,0.141,1.436,0.374,2.006,0.698  c1.104,0.649,1.934,1.562,2.488,2.737c0.557,1.176,0.834,2.622,0.834,4.338c0,1.804-0.346,3.32-1.033,4.55  c-0.689,1.229-1.705,2.144-3.047,2.742c-0.518,0.238-1.17,0.408-1.951,0.509c-0.783,0.101-2.037,0.151-3.76,0.151H29.365z   M34.482,63.798h1.373c1.277,0,2.162-0.285,2.656-0.855c0.494-0.569,0.742-1.59,0.742-3.062c0-1.435-0.254-2.452-0.758-3.051  c-0.506-0.599-1.363-0.897-2.574-0.897h-1.439V63.798z M49.064,67.833V51.896h5.215v15.937H49.064z M59.633,67.833V51.896h12.051  v4.014H64.75v2.467h5.518v3.852H64.75v5.604H59.633z M85.248,2.083h-6.916H21.33H7.531c-2.205,0-4,1.795-4,4v34.854v37.89v15.09  c0,2.205,1.795,4,4,4h84.932c2.205,0,4-1.795,4-4v-15.09v-37.89V14.593L85.248,2.083z M59.998,21.166h4.416  c1.381,0,2.5-1.245,2.5-2.782V5.083h8.418v19.166c0,0.552-0.449,1-1,1H33.459V5.083h24.039v13.301  C57.498,19.921,58.617,21.166,59.998,21.166z M30.459,5.083v20.166H25.33c-0.553,0-1-0.448-1-1V5.083H30.459z M6.531,43.938h86.932  v31.89H6.531V43.938z M93.463,93.917c0,0.551-0.449,1-1,1H7.531c-0.551,0-1-0.449-1-1v-15.09h86.932V93.917z M6.531,40.938V6.083  c0-0.551,0.449-1,1-1H21.33v19.166c0,2.206,1.793,4,4,4h49.002c2.205,0,4-1.794,4-4V5.083h5.576l9.555,10.657v25.197H6.531z"/><text x="0" y="115" fill="#000000" font-size="5px" font-weight="bold" font-family="'Helvetica Neue', Helvetica, Arial-Unicode, Arial, Sans-serif">Created by Liliane Lass Erbe</text><text x="0" y="120" fill="#000000" font-size="5px" font-weight="bold" font-family="'Helvetica Neue', Helvetica, Arial-Unicode, Arial, Sans-serif">from the Noun Project</text></svg>